<?xml version="1.0" standalone="no"?>
<!DOCTYPE svg PUBLIC "-//W3C//DTD SVG 20010904//EN"
 "http://www.w3.org/TR/2001/REC-SVG-20010904/DTD/svg10.dtd">
<svg version="1.0" xmlns="http://www.w3.org/2000/svg"
 width="500.000000pt" height="281.000000pt" viewBox="0 0 500.000000 281.000000"
 preserveAspectRatio="xMidYMid meet">

<g transform="translate(0.000000,281.000000) scale(0.100000,-0.100000)"
fill="#000000" stroke="none">
<path d="M479 1816 c-122 -34 -222 -119 -278 -236 -34 -71 -36 -81 -36 -175 0
-94 2 -104 36 -175 110 -230 376 -315 602 -193 57 32 137 116 164 173 10 22
20 39 23 39 3 0 13 -17 23 -39 44 -94 159 -185 272 -215 192 -49 395 40 485
214 l29 56 1 -132 0 -133 95 0 95 0 0 226 c0 124 4 223 9 220 4 -3 81 -105
170 -226 l162 -220 80 0 79 0 0 405 0 406 -158 -3 -157 -3 0 -85 0 -85 63 -3
62 -3 0 -134 c0 -74 -1 -135 -3 -135 -2 0 -77 101 -168 225 l-164 224 -82 1
-83 0 0 -132 -1 -133 -29 56 c-90 174 -293 263 -485 214 -113 -30 -228 -121
-272 -215 -10 -22 -20 -39 -23 -39 -3 0 -13 17 -23 39 -27 57 -107 141 -164
173 -99 53 -225 70 -324 43z m178 -201 c36 -11 62 -28 92 -60 l41 -45 89 0 89
0 0 -105 0 -105 -89 0 -89 0 -41 -45 c-136 -147 -382 -51 -382 150 0 120 95
218 219 224 11 1 43 -6 71 -14z m851 -21 c79 -46 124 -151 102 -235 -44 -167
-233 -231 -361 -121 -106 91 -106 243 1 334 23 20 58 41 78 47 53 14 130 4
180 -25z"/>
<path d="M3830 1816 c-120 -34 -222 -115 -272 -217 -26 -54 -26 -54 -32 -24
-12 57 -62 139 -105 172 -68 53 -121 63 -323 63 l-178 0 0 -405 0 -405 95 0
94 0 3 137 3 137 95 -137 94 -137 123 0 123 0 -100 132 -101 132 35 18 c34 18
115 102 117 122 0 6 7 -21 14 -59 27 -151 107 -259 239 -321 203 -96 453 -19
552 171 16 30 31 55 34 55 3 0 4 -56 2 -125 l-4 -125 256 0 256 0 0 90 0 90
-155 0 -155 0 0 315 0 315 -101 0 -101 0 4 -125 c2 -69 1 -125 -2 -125 -3 0
-18 25 -34 55 -83 160 -298 250 -476 201z m-570 -201 c41 -21 60 -53 60 -103
0 -76 -73 -122 -176 -110 l-29 3 -3 113 -3 112 61 0 c35 0 74 -6 90 -15z m735
4 c24 -6 63 -27 86 -47 106 -91 106 -243 0 -334 -78 -67 -183 -72 -269 -14
-128 86 -131 271 -6 359 62 44 117 54 189 36z"/>
<path d="M2520 1405 l0 -405 100 0 100 0 0 315 0 315 85 0 85 0 0 90 0 90
-185 0 -185 0 0 -405z"/>
</g>
</svg>
